<?xml version="1.0" encoding="UTF-8"?>
<svg id="Camada_1" data-name="Camada 1" xmlns="http://www.w3.org/2000/svg" viewBox="0 0 1453 318">
  <defs>
    <style>
      .cls-1 {
        font-family: CormorantGaramond-Regular, 'Cormorant Garamond';
        font-size: 366.85px;
      }

      .cls-2 {
        letter-spacing: 0em;
      }

      .cls-3 {
        letter-spacing: 0em;
      }

      .cls-4 {
        letter-spacing: -.07em;
      }
    </style>
  </defs>
  <path d="m329.46,270.29c5.78-5.61,9.43-12.05,12.94-19.31,4.84-10.01,6.73-20.59,5.84-31.61-.55-6.8-2.08-13.42-4.8-19.75-4.07-9.5-9.79-18.03-15.41-26.63-5.31-8.13-10.5-16.38-13.83-25.55-3.39-9.33-4.19-18.9-1-28.52.83-2.49,2.06-4.86,2.65-7.4.38-1.63.49-3.75-.24-5.14-2.91-5.53-2.76-11.33-1.78-17.12.49-2.89,2.52-5.25,5.78-6.9,0,1.49.03,2.98,0,4.47-.12,5.05.99,9.75,3.57,14.16,3.77,6.46,9.77,9.39,16.71,10.59,4.67.81,9.46.94,14.21,1.29,2.57.19,3.03.6,2.65,3.21-.73,4.97-1.47,9.93-2.32,14.88-.43,2.53.52,3.94,2.84,4.99,5.54,2.51,11.42,3.26,17.11,1.83,3.64-.92,6.84-3.72,10.1-5.87.49-.32.64-1.94.29-2.63-4.6-9.36-9.41-18.62-13.94-28.01-2.08-4.3-4.55-8.35-5.05-13.48-.62-6.41-2.34-12.75-4-19.01-.58-2.2-2.3-4.13-3.65-6.08-4.35-6.29-8.72-12.56-13.21-18.75-1.23-1.69-.79-2.59.72-3.57,1.52-.98,3-2.02,4.45-3.12.59-.45,1.03-1.09,1.54-1.65-.66-.58-1.23-1.44-1.99-1.68-2.27-.7-4.59-1.3-6.94-1.66-5.35-.84-10.72-1.61-16.11-2.23-6.12-.69-12.14.17-18.08,1.65-3.73.93-7.58,1.65-11.11,3.11-6.13,2.55-11.27,6.58-15.99,11.32-5.89,5.91-11.84,11.87-16.43,18.86-5.38,8.21-8.78,13.17-13,22l-7-6c3.8-7.65,5.41-9.59,9.72-16.95,6.78-11.58,15.42-21.62,26.01-30.07,6.46-5.15,13.55-8.62,21.4-10.75,11.16-3.02,22.37-3.51,33.9-1.85,8.62,1.24,16.9,3.4,25.06,6.16,4.07,1.38,7.87,3.55,12.15,5.53-.74.84-1.08,1.4-1.57,1.74-3.61,2.44-7.23,4.87-10.89,7.23-2.87,1.85-3.18,2.93-1.23,5.78,2.87,4.2,6.04,8.23,8.64,12.59,1.73,2.9,3.07,6.16,3.9,9.44,1.26,5.01,1.84,10.19,2.88,15.26,1.12,5.44,3.69,10.32,6.19,15.23,5.21,10.26,10.36,20.55,15.43,30.87.33.66.09,2.01-.4,2.6-4.98,5.96-10.77,10.65-18.36,13.23-4.68,1.59-9.38,1.82-13.86,1.04-6.78-1.18-13.32-3.67-18.93-7.92-.69-.52-1.17-1.85-1.1-2.75.23-2.87.81-5.7,1.18-8.56.18-1.38.2-2.79.27-4.19.08-1.67-.65-2.47-2.4-2.75-5.43-.88-10.9-1.69-15.84-4.39-1.7-.93-2.74-.68-3.54,1.38-3.06,7.94-3.07,15.77-.45,23.9,3.73,11.56,10.78,21.19,17.2,31.2,7,10.93,13.61,22.11,16.2,34.96,1.66,8.23,2.78,16.55.94,25.19-1.33,6.22-2.66,12.44-5.1,18.2-3.66,8.65-8.53,16.68-15.45,23.31-5.87,5.62-12.46,10.19-19.47,14.22-2.77,1.59-16.51,12.23-19.29,13.8-.53.3-1.17.39-2.14.15,1.21-1.77,2.63-3.44,3.57-5.34"/>
  <path d="m191.18,91.65c-15.17-8.68-31.56-14.9-48.58-19.97-9.01-2.68-18.36-4.47-27.52-6.75-13.36-3.33-26.68-6.79-40.04-10.12-13.18-3.28-25.71-7.71-36.51-15.32-.83-.59-1.82-1-2.74-1.5-.26.2-.52.41-.79.61,1.03,1.57,1.92,3.23,3.11,4.71,6.75,8.4,16.56,13.55,26.82,17.67,10.61,4.26,21.75,7.61,32.87,10.78,10.73,3.05,21.84,5.06,32.59,8.07,10.65,2.98,21.28,6.2,31.53,10.11,12.88,4.9,24.75,11.29,34.96,20.03,9.43,8.07,16.98,17.09,22.21,27.63,1.28,2.58,2.48,5.19,3.72,7.78l1.01-.11c.26-1.46.69-2.92.76-4.39.63-12.71-4.3-23.87-13.69-33.25,0,0-9.36-10.06-19.71-15.98Z"/>
  <path d="m177.79,251.36c.44-4.18,1.24-8.42.86-12.68-.59-6.66-4.13-11.68-8.59-14.83-4.08-2.88-8.4-5.41-12.72-6.97-7.15-2.58-14.37-4.56-21.58-6.21-8.24-1.89-16.48-3.07-24.72-4.7-5.8-1.15-11.62-2.34-17.41-3.85-6.96-1.8-13.95-3.48-20.84-6.09-7.76-2.94-15.25-7.59-21.43-15.47-2.3-2.93-3.82-6.95-5.67-10.49-.1-.2.02-.58.05-1.14,2.51,2.47,4.74,4.85,7.1,6.94,5.34,4.75,11.16,7.56,17.08,9.67,5.58,1.99,11.18,3.95,16.79,5.46,6.22,1.68,12.45,2.92,18.68,4.19,7.27,1.48,14.54,2.63,21.81,4.22,8.42,1.84,16.86,3.66,25.26,6.11,8.01,2.33,15.95,5.59,23.18,12.22,3.24,2.97,5.97,6.47,7.62,11.27.24.7.82,1.69,1.22,1.75l-6.67,20.6Z"/>
  <path d="m.12,22.46c.69,1.89,1.29,3.82,2.1,5.66,5.67,12.83,13.42,24.21,23.48,34.06,8.18,8.01,16.79,15.54,26.91,20.86,8.69,4.57,17.85,8.33,26.99,11.96,9.94,3.95,20.05,7.48,30.18,10.91,8.32,2.81,16.85,5,25.17,7.83,9.22,3.14,18.39,6.46,27.4,10.12,9.15,3.72,17.24,9.22,23.66,16.8,2.6,3.07,4.97,6.5,5.79,11.38-1.89-1.07-3.31-1.75-4.6-2.63-10.02-6.85-20.91-11.98-32.3-16.05-10.88-3.89-21.84-7.57-32.76-11.36-11.81-4.1-23.69-8.03-35.41-12.39-11.01-4.09-21.99-8.32-32.73-13.07-14.15-6.27-25.92-15.91-35.85-27.69-7.23-8.57-12.54-18.32-15.56-29.19-1.1-3.94-2.03-7.94-2.89-11.94-.35-1.64-.28-3.37-.4-5.05.27-.07.54-.13.82-.2Z"/>
  <path d="m18.17,96c2.32,3.53,4.18,6.47,6.16,9.35,6.72,9.76,15.49,17.65,25.84,23.87,7.91,4.75,16.06,9.21,24.4,13.25,5.95,2.88,12.36,4.93,18.63,7.19,4.97,1.8,9.98,3.56,15.09,4.96,6.97,1.91,14.06,3.44,21.1,5.16,4.63,1.14,9.27,2.26,13.86,3.52,7.86,2.15,15.83,4.03,23.49,6.71,12.68,4.44,24.27,10.59,32.17,21.45.91,1.24,1.53,2.67,2.29,4.01-.17.15-.34.3-.51.45-1.71-1.1-3.32-2.35-5.13-3.26-5.83-2.94-11.54-6.22-17.67-8.49-8.29-3.06-16.88-5.44-25.42-7.86-7.23-2.05-14.55-3.82-21.86-5.58-6.94-1.68-14.02-2.92-20.88-4.85-7.76-2.18-15.43-4.69-22.98-7.45-13.93-5.1-27.38-11.15-40.02-18.71-12.14-7.26-20.92-17.18-25.96-29.81-1.65-4.14-3.32-8.45-2.61-13.91Z"/>
  <text class="cls-1" transform="translate(121.89 313.73)"><tspan x="0" y="0">AL</tspan><tspan class="cls-4" x="453.06" y="0">A</tspan><tspan class="cls-2" x="684.91" y="0">T</tspan><tspan class="cls-3" x="917.49" y="0">U</tspan><tspan x="1170.99" y="0">S</tspan></text>
</svg>