<?xml version="1.0" encoding="UTF-8"?>
<svg id="Camada_1" data-name="Camada 1" xmlns="http://www.w3.org/2000/svg" viewBox="0 0 700 591">
  <path d="m197.51,337.63c5.14,6.03,9.6,11.76,14.58,17,11.29,11.87,25.15,20.17,39.78,27.15,13.78,6.58,27.61,13.1,41.78,18.76,15.7,6.27,31.75,11.7,47.75,17.19,18.68,6.4,37.6,12.15,56.2,18.76,21.57,7.65,43.18,15.29,64.27,24.12,20.12,8.42,39.42,18.62,54.56,35.06,6.79,7.37,11.85,15.53,13.12,25.72.18,1.48,1.09,3.7,2.14,4.02,1.16.35,3.19-.75,4.28-1.8,11.69-11.34,21.07-24.37,28.17-39.04,9.79-20.23,13.62-41.63,11.81-63.91-1.12-13.74-4.21-27.13-9.7-39.93-8.24-19.21-19.79-36.45-31.16-53.83-10.75-16.43-21.22-33.12-27.96-51.66-6.85-18.86-8.48-38.21-2.01-57.65,1.67-5.03,4.16-9.83,5.35-14.96.77-3.3,1-7.58-.48-10.4-5.88-11.19-5.57-22.92-3.6-34.61.99-5.84,5.09-10.61,11.69-13.96,0,3.02.06,6.03-.01,9.05-.25,10.22,2,19.7,7.22,28.63,7.63,13.06,19.76,18.99,33.79,21.41,9.45,1.63,19.14,1.91,28.73,2.62,5.2.39,6.13,1.21,5.36,6.49-1.47,10.04-2.98,20.08-4.68,30.08-.87,5.12,1.06,7.97,5.75,10.1,11.2,5.07,23.1,6.6,34.59,3.69,7.36-1.86,13.82-7.52,20.42-11.87.99-.65,1.29-3.91.6-5.32-9.29-18.93-19.02-37.65-28.19-56.64-4.2-8.7-9.2-16.88-10.2-27.25-1.25-12.96-4.73-25.78-8.08-38.43-1.18-4.44-4.65-8.35-7.38-12.29-8.8-12.71-17.62-25.4-26.71-37.91-2.49-3.43-1.59-5.24,1.46-7.21,3.07-1.99,6.07-4.09,8.99-6.3,1.19-.9,2.08-2.21,3.11-3.33-1.33-1.17-2.49-2.92-4.03-3.39-4.59-1.41-9.28-2.62-14.02-3.36-10.83-1.69-21.68-3.26-32.56-4.5-12.37-1.4-24.55.34-36.55,3.33-7.55,1.88-15.33,3.34-22.46,6.3-12.39,5.15-22.79,13.3-32.34,22.89-11.91,11.95-23.13,24.33-32.4,38.47-10.89,16.6-19.2,34.49-27.73,52.35-4.57,9.58-3.92,16.02,3.25,24.21,15.04,17.18,22.93,37.64,21.92,60.92-.12,2.69-.8,5.36-1.22,8.04l-1.62.21c-1.98-4.75-3.9-9.53-5.95-14.26-8.38-19.32-20.47-35.84-35.57-50.62-16.36-16.01-35.36-27.71-56-36.7-16.41-7.15-33.43-13.05-50.49-18.51-17.21-5.51-35.02-9.2-52.2-14.79-17.82-5.8-35.65-11.95-52.64-19.75-16.44-7.54-32.14-16.97-42.95-32.36-1.9-2.71-3.33-5.74-4.98-8.62.42-.37.84-.74,1.26-1.11,1.47.91,3.05,1.67,4.38,2.75,17.3,13.93,37.37,22.04,58.47,28.06,21.4,6.1,42.73,12.43,64.13,18.53,14.68,4.19,29.66,7.45,44.08,12.37,27.25,9.28,53.85,20.15,77.8,36.58,5.74,3.94,7.78,3.13,10.99-3.33,7.68-15.48,14.75-31.33,23.46-46.21,13.7-23.41,31.19-43.72,52.58-60.79,13.06-10.42,27.4-17.43,43.27-21.73,22.57-6.11,45.23-7.09,68.55-3.74,17.43,2.5,34.17,6.87,50.67,12.45,8.23,2.78,15.92,7.18,24.57,11.18-1.5,1.7-2.17,2.84-3.17,3.51-7.3,4.94-14.62,9.85-22.02,14.63-5.81,3.75-6.42,5.92-2.49,11.68,5.81,8.5,12.21,16.63,17.47,25.46,3.5,5.87,6.21,12.46,7.88,19.08,2.56,10.13,3.72,20.6,5.83,30.85,2.26,11,7.47,20.86,12.51,30.79,10.53,20.74,20.94,41.55,31.2,62.42.66,1.34.19,4.07-.81,5.26-10.07,12.04-21.77,21.54-37.11,26.76-9.46,3.22-18.96,3.69-28.01,2.11-13.71-2.39-26.93-7.42-38.28-16.02-1.39-1.06-2.36-3.74-2.22-5.56.47-5.79,1.64-11.53,2.38-17.3.36-2.8.41-5.64.54-8.47.16-3.38-1.3-4.99-4.85-5.57-10.98-1.78-22.03-3.42-32.02-8.87-3.44-1.87-5.54-1.37-7.15,2.79-6.19,16.06-6.2,31.89-.91,48.32,7.53,23.37,21.8,42.84,34.77,63.08,14.16,22.09,27.52,44.71,32.76,70.69,3.36,16.65,5.62,33.45,1.9,50.94-2.68,12.58-5.38,25.15-10.31,36.8-7.4,17.49-17.24,33.73-31.24,47.13-11.88,11.36-25.2,20.6-39.37,28.75-5.6,3.22-11.14,6.53-16.76,9.71-1.07.6-2.37.78-4.33.31,2.44-3.59,5.31-6.96,7.23-10.8,3.97-7.97,8.95-15.87,10.76-24.38,2.83-13.31-3.4-24.83-13.37-33.15-9.11-7.6-19.13-14.63-29.78-19.75-17.62-8.48-35.85-15.84-54.23-22.54-21.02-7.66-42.55-13.95-63.76-21.11-14.94-5.04-29.87-10.18-44.55-15.91-17.62-6.88-35.43-13.53-52.33-21.94-19.04-9.48-36.21-22.19-47.68-40.59-4.26-6.83-5.71-15.44-8.35-23.26-.15-.44.44-1.13.9-2.21Z"/>
  <path d="m17.73,47.99c1.21,3.28,2.24,6.64,3.65,9.83,9.85,22.29,23.31,42.06,40.78,59.16,14.21,13.91,29.17,27,46.75,36.24,15.1,7.93,31,14.46,46.89,20.77,17.26,6.85,34.82,13,52.43,18.95,14.45,4.88,29.27,8.68,43.72,13.59,16.01,5.45,31.94,11.22,47.61,17.58,15.9,6.45,29.96,16.01,41.1,29.19,4.51,5.33,8.63,11.29,10.05,19.77-3.28-1.86-5.75-3.03-7.99-4.56-17.41-11.9-36.33-20.81-56.11-27.88-18.91-6.76-37.95-13.14-56.92-19.73-20.52-7.12-41.15-13.95-61.51-21.52-19.13-7.11-38.21-14.45-56.85-22.71-24.57-10.89-45.02-27.64-62.28-48.1-12.57-14.89-21.78-31.82-27.03-50.7-1.91-6.85-3.53-13.79-5.01-20.75-.61-2.85-.48-5.85-.69-8.78.47-.11.95-.23,1.42-.34Z"/>
  <path d="m106.55,200.93c4.18,6.77,7.53,12.43,11.1,17.94,12.12,18.73,27.92,33.89,46.59,45.82,14.26,9.12,28.95,17.67,43.99,25.43,10.72,5.53,22.28,9.46,33.58,13.81,8.97,3.45,17.99,6.84,27.21,9.53,12.57,3.66,25.36,6.6,38.03,9.91,8.35,2.18,16.71,4.35,24.99,6.77,14.16,4.14,28.55,7.73,42.34,12.87,22.86,8.52,43.75,20.33,58,41.18,1.63,2.39,2.76,5.12,4.13,7.7-.31.29-.61.58-.92.87-3.07-2.1-5.99-4.51-9.25-6.26-10.52-5.64-20.8-11.95-31.85-16.3-14.94-5.88-30.43-10.44-45.83-15.09-13.03-3.93-26.22-7.33-39.4-10.72-12.52-3.22-25.27-5.61-37.63-9.31-13.98-4.18-27.82-9-41.42-14.3-25.11-9.78-49.35-21.41-72.14-35.93-21.89-13.95-37.7-32.97-46.8-57.23-2.98-7.94-5.99-16.23-4.71-26.71Z"/>
</svg>